<svg width="64" height="64" viewBox="0 0 64 64" fill="none" xmlns="http://www.w3.org/2000/svg">
<path d="M29.8777 34.3012C29.9778 34.3012 30.078 34.2732 30.1605 34.2116L39.9457 27.3568L38.956 26.92L29.8659 33.2876L20.5519 27.2784L19.5387 27.7264L29.6067 34.2228C29.6892 34.2732 29.7834 34.3012 29.8777 34.3012Z" fill="black"/>
<path d="M14.6274 23.0836C14.4138 22.9541 14.1195 23.0059 13.9752 23.1975C13.8309 23.3891 13.8829 23.648 14.1022 23.7826L18.546 26.4857L19.5387 26.0715L14.6274 23.0836Z" fill="black"/>
<path d="M47.256 21.1836L47.2674 24.9921C47.2674 25.243 47.4736 25.4438 47.7314 25.4438C47.9892 25.4438 48.1954 25.243 48.1954 24.9921L48.1782 19.9903C48.1782 19.8677 48.1267 19.7561 48.0407 19.6725C47.9548 19.5889 47.8345 19.5387 47.7142 19.5387L42.725 19.5665C42.4673 19.5665 42.261 19.7729 42.261 20.0238C42.261 20.2747 42.473 20.4755 42.725 20.4755L46.7233 20.4531C46.7233 20.4531 46.7003 20.4587 46.6946 20.4643L39.5115 25.6166L40.4739 26.0516L47.2445 21.1948L47.256 21.1836ZM47.256 20.442V20.4699C47.256 20.4699 47.2388 20.4531 47.2273 20.4476H47.256V20.442Z" fill="black"/>
<path d="M55.101 24.2784C55.101 24.5398 55.3032 24.749 55.556 24.749C55.8087 24.749 56.0109 24.5398 56.0109 24.2784C56.0109 17.3588 50.5687 11.7232 43.8742 11.7232C43.6215 11.7232 43.4193 11.9324 43.4193 12.1938C43.4193 12.4553 43.6215 12.6644 43.8742 12.6644C50.0633 12.6644 55.0954 17.8759 55.0954 24.2784H55.101Z" fill="black"/>
<path d="M43.8829 4.34193C43.6254 4.34193 43.4193 4.54801 43.4193 4.8056C43.4193 5.06319 43.6254 5.26927 43.8829 5.26927C54.3698 5.26927 62.899 13.7984 62.899 24.2853C62.899 24.5429 63.1051 24.749 63.3627 24.749C63.6203 24.749 63.8263 24.5429 63.8263 24.2853C63.8263 13.289 54.8793 4.34193 43.8829 4.34193Z" fill="black"/>
<path d="M57.4857 44.7722C57.6421 44.6918 57.7406 44.5368 57.7464 44.3645L57.8738 34.7525V34.7353C57.8738 34.5573 57.7638 34.3965 57.6016 34.3218L40.492 26.4668L39.5189 26.019L30.2227 21.7527C30.0953 21.6953 29.9563 21.6953 29.8289 21.7527L19.6581 26.4094L18.6619 26.8688L2.15463 34.4309C1.98666 34.5056 1.8824 34.6721 1.8824 34.8558V35.1142C1.8824 35.1429 1.8824 35.1716 1.8882 35.2003C1.8882 35.2291 1.8824 35.2578 1.8824 35.2865V44.5597C1.8824 44.7377 1.98087 44.8985 2.14305 44.9789L5.30548 46.5464L0 49.1074L0.411232 49.9457L6.36542 47.0747L12.6729 50.2041L6.62027 53.1267L7.0315 53.965L13.7329 50.7323L19.884 53.787L13.5128 56.859L13.924 57.6973L20.9381 54.3096L29.5219 58.5701C29.5856 58.6045 29.6609 58.616 29.7304 58.616C29.7999 58.616 29.8752 58.5988 29.9447 58.5643L38.2099 54.4244L43.5154 56.991L43.9266 56.1527L39.2641 53.8961L46.5388 50.2557L51.7459 52.7765L52.1571 51.9381L47.593 49.7275L54.2828 46.3799L59.9415 49.1188L60.3528 48.2805L55.3369 45.8517L57.4973 44.7722H57.4857ZM19.5596 27.4774L20.5559 27.0181L30.02 22.6886L38.6501 26.6506L39.6232 27.0985L56.3215 34.764L29.7188 48.1829L3.15086 34.9994L19.5654 27.4832L19.5596 27.4774ZM24.4886 51.5419L20.9265 53.2588L14.7754 50.2041L17.5961 48.8432L17.1849 48.0049L13.7213 49.6758L7.41378 46.5464L10.6863 44.9674L10.275 44.1291L6.35963 46.0182L2.81492 44.2554V35.8549L29.2613 48.9753V57.3815L21.9981 53.7756L24.9115 52.3688L24.5002 51.5305L24.4886 51.5419ZM46.5157 49.2164L42.386 47.2182L41.9747 48.0566L45.4673 49.7447L38.1925 53.3851L33.947 51.3295L33.5358 52.1678L37.1384 53.9134L30.1938 57.3872V48.981L56.9181 35.5047L56.8081 44.0659L54.2654 45.3406L50.46 43.4975L50.0488 44.3358L53.2112 45.8689L46.5215 49.2164H46.5157Z" fill="black"/>
</svg>
