<svg width="64" height="64" viewBox="0 0 64 64" fill="none" xmlns="http://www.w3.org/2000/svg">
<g clip-path="url(#clip0_1_51)">
<path d="M16.4701 44.2877H9.14724C8.88979 44.2877 8.68384 44.4936 8.68384 44.7511V52.0739C8.68384 52.3314 8.88979 52.5373 9.14724 52.5373H16.4701C16.7275 52.5373 16.9335 52.3314 16.9335 52.0739V44.7511C16.9335 44.4936 16.7275 44.2877 16.4701 44.2877ZM16.0067 51.6105H9.61636V45.2145H16.0067V51.6105Z" fill="black"/>
<path d="M16.4701 29.9593H9.14724C8.88979 29.9593 8.68384 30.1652 8.68384 30.4227V37.7456C8.68384 38.003 8.88979 38.209 9.14724 38.209H16.4701C16.7275 38.209 16.9335 38.003 16.9335 37.7456V30.4227C16.9335 30.1652 16.7275 29.9593 16.4701 29.9593ZM16.0067 37.2822H9.61636V30.8861H16.0067V37.2822Z" fill="black"/>
<path d="M32.1011 29.9593H24.7782C24.5208 29.9593 24.3148 30.1652 24.3148 30.4227V37.7456C24.3148 38.003 24.5208 38.209 24.7782 38.209H32.1011C32.3585 38.209 32.5645 38.003 32.5645 37.7456V30.4227C32.5645 30.1652 32.3585 29.9593 32.1011 29.9593ZM31.6377 37.2822H25.2473V30.8861H31.6377V37.2822Z" fill="black"/>
<path d="M48.1418 44.2877H40.4335C40.1625 44.2877 39.9457 44.4936 39.9457 44.7511V52.0739C39.9457 52.3314 40.1625 52.5373 40.4335 52.5373H48.1418C48.4128 52.5373 48.6296 52.3314 48.6296 52.0739V44.7511C48.6296 44.4936 48.4128 44.2877 48.1418 44.2877ZM47.654 51.6105H40.9273V45.2145H47.654V51.6105Z" fill="black"/>
<path d="M57.3081 35.462C60.4791 31.8126 64.2605 25.404 64.2605 15.6054C64.2605 14.9451 63.816 14.3555 63.1877 14.1727C58.4283 12.7755 54.1076 10.1283 50.6877 6.53194C50.1306 5.92468 49.0578 5.93058 48.5066 6.53194C45.0985 10.1283 40.7718 12.7755 36.0124 14.1786C35.3783 14.3614 34.9337 14.9451 34.9337 15.6113C34.9337 16.5723 34.9811 17.4979 35.0463 18.394C28.6985 18.2113 19.0434 18.394 11.8955 19.5201C11.6643 19.5555 11.4865 19.7559 11.4865 19.9918V23.4466H3.10575C2.83903 23.4466 2.62566 23.6589 2.62566 23.9242V56.7925H0.480087C0.213372 56.7925 0 57.0048 0 57.2701C0 57.5354 0.213372 57.7476 0.480087 57.7476H56.3539C56.6206 57.7476 56.834 57.5354 56.834 57.2701C56.834 57.0048 56.6206 56.7925 56.3539 56.7925H54.7655V38.0148C55.5775 37.3073 56.4369 36.4643 57.3022 35.4738L57.3081 35.462ZM36.2851 15.0925C41.2104 13.6362 45.6794 10.9006 49.2119 7.17457C49.3067 7.06844 49.4489 7.00949 49.5912 7.00949C49.7334 7.00949 49.8757 7.06844 49.9764 7.18046C53.5208 10.9065 57.9898 13.6421 62.9151 15.0925C63.1403 15.1573 63.2944 15.3637 63.2944 15.6054C63.2944 25.1151 59.6434 31.3114 56.5791 34.8371C53.2304 38.6751 49.8579 40.2434 49.8342 40.2493C49.6682 40.32 49.5319 40.32 49.3719 40.2493C49.2356 40.1844 45.952 38.6633 42.6151 34.8312C39.5509 31.3173 35.8998 25.1269 35.8998 15.5995C35.8998 15.3637 36.0539 15.1514 36.2851 15.0866V15.0925ZM32.391 56.7807H25.0119V44.954H32.391V56.7807ZM53.8053 56.7807H33.3512V44.4765C33.3512 44.2112 33.1378 43.9989 32.8711 43.9989H24.5318C24.2651 43.9989 24.0518 44.2112 24.0518 44.4765V56.7807H3.59176V24.3899H11.9725C12.2393 24.3899 12.4526 24.1777 12.4526 23.9124V20.3927C19.5354 19.3314 28.9415 19.1546 35.1293 19.3432C35.9354 27.0784 39.136 32.3078 41.8861 35.462C45.3593 39.4534 48.8266 41.057 48.9807 41.1277C49.1882 41.2162 49.3956 41.2633 49.5912 41.2633C49.8401 41.2633 50.0654 41.1926 50.2195 41.1218C50.3143 41.0806 51.8138 40.3731 53.8053 38.793V56.7748V56.7807Z" fill="black"/>
<path d="M48.5733 33.4092C48.8282 33.4269 49.0713 33.4328 49.3144 33.4328C54.7214 33.4328 57.0514 29.4215 57.2885 26.5959C57.6443 22.4725 54.0692 19.8534 53.9151 19.7413C53.7491 19.6174 53.5238 19.6174 53.3578 19.7413C53.1918 19.8593 53.1147 20.0716 53.174 20.2663C53.6127 21.7941 52.9961 23.1863 52.5337 23.9473C51.9645 22.6908 51.0396 19.5997 52.6404 14.9631C52.7056 14.7802 52.6463 14.5738 52.504 14.4499C52.3558 14.3201 52.1483 14.2906 51.9705 14.3791C51.8163 14.4558 48.4666 16.1429 46.4389 20.9329C46.2314 20.166 46.101 19.0983 46.4567 18.0365C46.5279 17.83 46.4508 17.6058 46.267 17.4879C46.0832 17.3699 45.852 17.3817 45.686 17.5174C41.9449 20.6969 40.4687 24.5313 41.6426 28.0353C42.6505 31.0437 45.431 33.2028 48.5674 33.4092H48.5733ZM45.2769 19.2104C45.1998 20.9978 45.9765 22.443 46.018 22.5197C46.1069 22.6849 46.2848 22.7911 46.4804 22.7675C46.6702 22.7498 46.8362 22.6259 46.8954 22.443C48.0871 18.9213 50.097 16.9157 51.3302 15.9541C49.765 21.7882 51.9823 24.9973 52.089 25.1389C52.172 25.2568 52.3084 25.3335 52.4566 25.3394C52.593 25.3394 52.7471 25.2863 52.842 25.1743C52.9131 25.0917 54.2827 23.5107 54.2886 21.3812C55.2313 22.384 56.5297 24.2068 56.3281 26.5251C56.1087 29.0971 53.8617 32.7957 48.6326 32.4595C45.9231 32.2825 43.4271 30.3418 42.5556 27.7403C41.6248 24.9619 42.6149 21.9062 45.271 19.2163L45.2769 19.2104Z" fill="black"/>
<path d="M48.0077 30.8163C48.0448 30.8277 48.0882 30.8277 48.1253 30.8277C48.3482 30.8277 48.5586 30.6854 48.6143 30.4748C48.6824 30.2243 48.5153 29.9738 48.2491 29.9169C46.7324 29.5754 45.4201 28.5337 44.8196 27.2073C44.7144 26.974 44.4172 26.8544 44.1634 26.9569C43.9096 27.0536 43.7858 27.3269 43.891 27.5603C44.6215 29.1826 46.1629 30.4008 48.0077 30.8163Z" fill="black"/>
</g>
<defs>
<clipPath id="clip0_1_51">
<rect width="64" height="64" fill="white"/>
</clipPath>
</defs>
</svg>
