<svg width="64" height="64" viewBox="0 0 64 64" fill="none" xmlns="http://www.w3.org/2000/svg">
<g clip-path="url(#clip0_1_18)">
<path d="M57.6081 12.0455C57.6081 12.0455 57.5899 12.0151 57.5778 11.9969C57.5656 11.9787 57.5535 11.9544 57.5413 11.9362C57.5292 11.9241 57.511 11.9241 57.4928 11.9119C57.4685 11.8876 57.4503 11.8573 57.426 11.8391L37.7696 0.0682936C37.6118 -0.0227645 37.4175 -0.0227645 37.2597 0.0682936L32.3 3.055C32.3 3.055 32.2454 3.06107 32.215 3.07321C32.1604 3.10356 32.124 3.15213 32.0876 3.20069C32.0754 3.21284 32.0633 3.21891 32.0511 3.23712C32.039 3.25533 32.0269 3.26747 32.0147 3.28568C31.9965 3.3221 31.9965 3.3646 31.9844 3.40102C31.9783 3.43137 31.954 3.44959 31.954 3.47994C31.954 3.49208 31.954 3.49815 31.954 3.50422C31.954 3.51636 31.9479 3.52243 31.9479 3.53457V6.83088L24.9486 2.6422C24.7908 2.55115 24.5965 2.55115 24.4387 2.6422L19.479 5.62891C19.479 5.62891 19.4244 5.63498 19.3941 5.64712C19.3394 5.67748 19.303 5.72604 19.2666 5.7746C19.2544 5.78675 19.2423 5.79282 19.2302 5.81103C19.218 5.82924 19.2059 5.84138 19.1937 5.85959C19.1755 5.89601 19.1755 5.93851 19.1634 5.97493C19.1573 6.00529 19.133 6.0235 19.133 6.05385C19.133 6.06599 19.133 6.07206 19.133 6.07813C19.133 6.09027 19.127 6.09634 19.127 6.10848V14.8379C19.127 15.1111 19.3455 15.3296 19.6187 15.3296C19.8918 15.3296 20.1104 15.1111 20.1104 14.8379V6.98264L31.6566 13.897L38.7834 18.1646V62.607L20.1104 51.4251V44.3772C20.1104 44.104 19.8918 43.8855 19.6187 43.8855C19.3455 43.8855 19.127 44.104 19.127 44.3772V51.7043C19.127 51.7043 19.1391 51.7286 19.1391 51.7468C19.1391 51.8015 19.1573 51.8561 19.1816 51.9047C19.1937 51.9229 19.1998 51.9472 19.2119 51.9654C19.2544 52.0261 19.303 52.0868 19.3698 52.1293L39.0262 63.9304C39.1051 63.979 39.1962 64.0033 39.2812 64.0033C39.4086 64.0033 39.5179 63.9426 39.609 63.8576L44.435 60.9619C44.4897 60.9558 44.5382 60.9376 44.5868 60.9134C44.7507 60.8284 44.8539 60.6584 44.8539 60.4763V57.1739L51.8411 61.3686L51.8533 61.3444C51.9261 61.3869 52.0111 61.4051 52.09 61.4051C52.1689 61.4051 52.26 61.3869 52.3328 61.3444L57.2378 58.4001C57.2864 58.3941 57.341 58.3759 57.3896 58.3516C57.5535 58.2666 57.6567 58.0966 57.6567 57.9145V12.2762C57.6567 12.1972 57.6263 12.1183 57.5899 12.0455H57.6081ZM39.7789 62.601V18.1585L43.8766 15.6999V60.1424L39.7789 62.601ZM52.1021 14.7287L33.4109 3.53457L37.5146 1.06386L56.2119 12.2579L52.1021 14.7226V14.7287ZM51.6044 15.5846V60.0271L44.8539 55.9841V14.8501C44.8539 14.7711 44.8236 14.6922 44.7871 14.6194C44.7811 14.6012 44.7689 14.589 44.7568 14.5708C44.7446 14.5526 44.7325 14.5283 44.7204 14.5101C44.7082 14.498 44.69 14.498 44.6718 14.4858C44.6475 14.4616 44.6293 14.4312 44.605 14.413L32.9314 7.42579V4.40873L51.6044 15.5846ZM43.397 14.8379L39.2872 17.3026L20.596 6.10848L24.6997 3.63777L43.397 14.8319V14.8379ZM56.6854 57.5685L52.5878 60.0271V15.5846L56.6854 13.126V57.5685Z" fill="black"/>
<circle cx="52.1022" cy="60.9316" r="0.303527" fill="white"/>
<path d="M30.491 32.0297C30.491 26.3295 25.8531 21.6855 20.1468 21.6855C19.9708 21.6855 19.8008 21.7037 19.6248 21.7098C14.1673 21.983 9.80261 26.4994 9.80261 32.0236C9.80261 32.2968 10.0212 32.5154 10.2943 32.5154C10.5675 32.5154 10.786 32.2968 10.786 32.0236C10.786 27.0397 14.7076 22.9664 19.6187 22.6932C19.7947 22.6811 19.9647 22.6689 20.1407 22.6689C25.3007 22.6689 29.4955 26.8697 29.4955 32.0236C29.4955 37.1775 25.2946 41.3783 20.1407 41.3783H11.8302C11.557 41.3783 11.3385 41.5969 11.3385 41.8701C11.3385 42.1432 11.557 42.3618 11.8302 42.3618H20.1407C25.8471 42.3618 30.485 37.7239 30.485 32.0176L30.491 32.0297Z" fill="black"/>
<path d="M22.8361 25.6253C23.085 25.7285 23.3763 25.6131 23.4795 25.3643C23.5827 25.1154 23.4674 24.824 23.2185 24.7208C22.2472 24.308 21.2092 24.1016 20.1468 24.1016C19.9708 24.1016 19.8008 24.1137 19.6248 24.1259C15.4968 24.399 12.2187 27.835 12.2187 32.0297C12.2187 32.3029 12.4372 32.5214 12.7104 32.5214C12.9836 32.5214 13.2021 32.3029 13.2021 32.0297C13.2021 28.3813 16.0431 25.4067 19.6248 25.1396C19.8008 25.1275 19.9647 25.085 20.1468 25.085C21.0817 25.085 21.9862 25.2671 22.8361 25.6253Z" fill="black"/>
<path d="M22.0348 32.0297C22.0348 31.6837 21.9194 31.3802 21.7555 31.1009L25.756 27.0519C25.9503 26.8576 25.9442 26.548 25.756 26.3538C25.5617 26.1595 25.2461 26.1656 25.0579 26.3538L21.0574 30.4028C20.7842 30.251 20.4868 30.1357 20.1529 30.1357C19.9708 30.1357 19.8008 30.1903 19.6308 30.2389C18.8477 30.4696 18.265 31.1616 18.265 32.0176C18.265 32.8735 18.8477 33.5656 19.6308 33.7962C19.8008 33.8448 19.9647 33.8994 20.1529 33.8994C21.191 33.8994 22.0408 33.0556 22.0408 32.0115L22.0348 32.0297ZM19.2484 32.0297C19.2484 31.7323 19.4062 31.4773 19.6248 31.3134C19.7765 31.2041 19.9465 31.1252 20.1468 31.1252C20.6446 31.1252 21.0453 31.5319 21.0453 32.0236C21.0453 32.5154 20.6385 32.9221 20.1468 32.9221C19.9465 32.9221 19.7765 32.8432 19.6248 32.7339C19.4001 32.57 19.2484 32.315 19.2484 32.0176V32.0297Z" fill="black"/>
<path d="M23.006 20.2953V18.1403C23.006 17.8671 22.7875 17.6486 22.5143 17.6486H17.7793C17.5061 17.6486 17.2876 17.8671 17.2876 18.1403V20.2953C17.2876 20.5685 17.5061 20.7871 17.7793 20.7871H22.5143C22.7875 20.7871 23.006 20.5685 23.006 20.2953ZM22.0226 19.8036H18.271V18.632H22.0226V19.8036Z" fill="black"/>
<path d="M27.9354 22.7418C27.7411 22.5475 27.4315 22.5475 27.2372 22.7418C27.043 22.936 27.043 23.2456 27.2372 23.4399L28.7367 24.9393C28.8338 25.0364 28.9613 25.085 29.0827 25.085C29.2041 25.085 29.3377 25.0364 29.4287 24.9393C29.623 24.7451 29.623 24.4355 29.4287 24.2412L27.9293 22.7418H27.9354Z" fill="black"/>
<path d="M17.3179 38.2641C17.3179 37.991 17.0994 37.7724 16.8262 37.7724H9.2502C8.97702 37.7724 8.75848 37.991 8.75848 38.2641C8.75848 38.5373 8.97702 38.7559 9.2502 38.7559H16.8262C17.0994 38.7559 17.3179 38.5373 17.3179 38.2641Z" fill="black"/>
<path d="M14.8897 34.6765C14.8897 34.4033 14.6712 34.1848 14.398 34.1848H6.82198C6.5488 34.1848 6.33026 34.4033 6.33026 34.6765C6.33026 34.9496 6.5488 35.1682 6.82198 35.1682H14.398C14.6712 35.1682 14.8897 34.9496 14.8897 34.6765Z" fill="black"/>
</g>
<defs>
<clipPath id="clip0_1_18">
<rect width="64" height="64" fill="white"/>
</clipPath>
</defs>
</svg>
