<?xml version="1.0" encoding="UTF-8"?>
<svg xmlns="http://www.w3.org/2000/svg" version="1.1" viewBox="0 0 64 64">
  <defs>
    <style>
      .cls-1 {
        fill: none;
      }
    </style>
  </defs>
  <!-- Generator: Adobe Illustrator 28.7.3, SVG Export Plug-In . SVG Version: 1.2.0 Build 164)  -->
  <g>
    <g id="Layer_1">
      <g>
        <polygon class="cls-1" points="3.7 47.7 16 61.6 16 43.7 3.7 29.9 3.7 47.7"/>
        <polygon class="cls-1" points="23.4 61.9 60.3 22.9 60.3 4.6 23.4 43.7 23.4 61.9"/>
        <path d="M3.5,27.9c-.2-.2-.4-.2-.7-.2-.2,0-.4.3-.4.5v19.6c0,.1,0,.3.2.4l13.5,15.1c.1.1.3.2.4.2s.1,0,.2,0c.2,0,.4-.3.4-.5v-19.6c0-.1,0-.3-.2-.4,0,0-13.5-15.1-13.5-15.1ZM16,61.6l-12.4-13.8v-17.9l12.4,13.8s0,17.8,0,17.8Z"/>
        <path d="M61.1,2.6c-.2,0-.5,0-.6.1L22.4,43c-.1.1-.2.3-.2.4v20c0,.2.1.5.4.5,0,0,.1,0,.2,0,.2,0,.3,0,.4-.2L61.4,23.5c.1-.1.2-.3.2-.4V3.1c0-.2-.1-.5-.4-.5h0ZM60.3,22.9L23.4,61.9v-18.3L60.3,4.6v18.3Z"/>
        <path d="M22.8,35.6c.3,0,.6-.3.6-.6V.6c0-.3-.3-.6-.6-.6s-.6.3-.6.6v34.4c0,.3.3.6.6.6Z"/>
        <path d="M28.9,29.7c.3,0,.6-.3.6-.6V.6c0-.3-.3-.6-.6-.6s-.6.3-.6.6v28.5c0,.3.3.6.6.6Z"/>
        <path d="M35.1,23.4c.3,0,.6-.3.6-.6V.6c0-.3-.3-.6-.6-.6s-.6.3-.6.6v22.3c0,.3.3.6.6.6Z"/>
        <path d="M41.2,17.1c.3,0,.6-.3.6-.6V.6c0-.3-.3-.6-.6-.6s-.6.3-.6.6v15.9c0,.3.3.6.6.6Z"/>
        <path d="M16.6,12.4c-.3,0-.6.3-.6.6v22.1c0,.3.3.6.6.6s.6-.3.6-.6V13c0-.3-.3-.6-.6-.6Z"/>
        <path d="M10.5,29.7c.3,0,.6-.3.6-.6V13c0-.3-.3-.6-.6-.6s-.6.3-.6.6v16.1c0,.3.3.6.6.6Z"/>
        <path d="M4.3,23.4c.3,0,.6-.3.6-.6v-9.9c0-.3-.3-.6-.6-.6s-.6.3-.6.6v9.9c0,.3.3.6.6.6Z"/>
      </g>
    </g>
  </g>
</svg>