<svg width="64" height="64" viewBox="0 0 64 64" fill="none" xmlns="http://www.w3.org/2000/svg">
<path d="M58.9292 11.4899C58.9292 11.4899 58.9128 11.4625 58.9019 11.446C58.891 11.424 58.8801 11.4021 58.8638 11.3856C58.8529 11.3746 58.8365 11.3746 58.8256 11.3636C58.8038 11.3472 58.7929 11.3197 58.7711 11.3088L41.8519 1.10425C41.7102 1.02191 41.5358 1.02191 41.3942 1.10425L37.1221 3.69517C37.1221 3.69517 37.0785 3.69517 37.0567 3.71164C37.0077 3.73909 36.9695 3.78849 36.9368 3.8324C36.9259 3.84338 36.915 3.84887 36.9096 3.85985C36.8987 3.87632 36.8878 3.88181 36.8823 3.89827C36.866 3.93121 36.8605 3.96963 36.8551 4.00806C36.8496 4.03551 36.8279 4.05197 36.8279 4.07942C36.8279 4.08491 36.8279 4.0904 36.8279 4.10138C36.8279 4.11235 36.8224 4.11784 36.8224 4.12333V10.3372C33.9344 6.37941 31.0573 2.68515 26.551 0.0612928C26.3984 -0.0320244 26.2077 -0.0155565 26.066 0.0887391L21.8975 3.21761C21.8702 3.23956 21.8539 3.2725 21.8321 3.29995C21.8103 3.3219 21.7885 3.34386 21.7722 3.37131C21.7504 3.40973 21.7449 3.45365 21.7395 3.50305C21.7395 3.53049 21.7177 3.55245 21.7177 3.5799V29.3739L18.688 27.6118C18.5518 27.5295 18.3828 27.5295 18.2466 27.6118L5.22341 35.1979C5.08718 35.2803 5 35.423 5 35.5822V50.716C5 50.8752 5.08718 51.0234 5.22341 51.1003L27.3029 63.9396C27.3738 63.978 27.4501 64 27.5263 64C27.6026 64 27.6789 63.978 27.7497 63.9396L40.773 56.3645C40.9092 56.2821 40.9964 56.1394 40.9964 55.9802V54.8988L44.7562 57.0836H44.7671C44.7671 57.0836 44.7726 57.089 44.778 57.0945C44.8434 57.1275 44.9088 57.1439 44.9742 57.1439C45.0505 57.1439 45.1267 57.122 45.1976 57.0836C45.2085 57.0836 45.2085 57.0671 45.2194 57.0616C45.2248 57.0616 45.2357 57.0616 45.2412 57.0561L49.426 53.9272C49.5405 53.8449 49.6059 53.7077 49.6059 53.5704V51.6218L53.9705 54.2621L53.9814 54.2401C54.0468 54.2785 54.1231 54.295 54.1939 54.295C54.2648 54.295 54.3465 54.2785 54.4119 54.2401L58.6295 51.6931C58.6731 51.6876 58.7167 51.6712 58.7602 51.6492C58.9074 51.5724 59 51.4187 59 51.254V11.704C59 11.6326 58.9728 11.5613 58.9401 11.4954L58.9292 11.4899ZM39.6505 40.8354L27.5209 47.9055L6.31867 35.5822L18.4537 28.512L39.6505 40.8354ZM5.8773 36.3562L27.0686 48.6795V62.7814L5.8773 50.458V36.3562ZM27.9568 62.7814V48.685L40.0918 41.6094V55.7222L27.9568 62.7814ZM40.9746 40.8354C40.9746 40.6762 40.8874 40.528 40.7512 40.4511L22.5895 29.8898V4.37584C22.6331 4.40328 22.6712 4.42524 22.7148 4.45269C23.2325 4.78204 23.7393 5.13335 24.2351 5.51211C24.3278 5.58347 24.4149 5.65483 24.5076 5.72619C25.0198 6.12691 25.5211 6.54958 26.017 7.01067C28.6161 9.41496 30.6268 12.198 32.7574 15.1512L32.8501 15.2775C33.2151 15.7825 33.5857 16.2985 33.9671 16.8145C34.0979 16.9956 34.2396 17.1713 34.3703 17.3524C34.6264 17.6982 34.8825 18.0386 35.1495 18.3899C35.3076 18.5985 35.4819 18.8071 35.6454 19.0102C35.8961 19.3285 36.1467 19.6469 36.4083 19.9653C36.5881 20.1849 36.7843 20.3989 36.975 20.6185C37.2365 20.9204 37.4926 21.2278 37.7705 21.5297C37.9722 21.7493 38.1901 21.9579 38.3972 22.1775C38.6805 22.4739 38.9584 22.7703 39.2527 23.0557C39.4706 23.2698 39.7104 23.4729 39.9393 23.6815C40.2499 23.9615 40.5495 24.2469 40.871 24.5214C41.1162 24.7245 41.3778 24.9166 41.6339 25.1142C41.9717 25.3777 42.3041 25.6467 42.6583 25.8992C42.9253 26.0913 43.2196 26.2615 43.4975 26.4481C43.8353 26.6677 44.1568 26.8982 44.511 27.1123V55.9363L40.9746 53.8778V40.8409V40.8354ZM36.817 11.8577L37.0295 12.1486C39.8793 16.0899 43.0997 20.5362 48.3362 23.7638L44.9197 26.3163C39.6559 23.182 36.4192 18.7083 33.5584 14.7505L33.4658 14.6243C31.308 11.6381 29.2755 8.81664 26.6109 6.35197C25.4339 5.25961 24.2242 4.33192 22.9382 3.53598L26.3384 0.983486C30.9102 3.72262 33.7764 7.67487 36.8061 11.8522L36.817 11.8577ZM54.1722 13.8064L38.1193 4.12333L41.6176 2.00448L57.6759 11.6875L54.1722 13.8064ZM47.6333 10.9025L53.7308 14.5803V53.0654L49.5786 50.5623V23.7199C49.5786 23.7199 49.5786 23.7144 49.5786 23.709V23.698C49.5677 23.5498 49.486 23.4125 49.3607 23.3357C43.9389 20.1794 40.6476 15.6343 37.7487 11.6216L37.6997 11.5558V4.91378L47.6333 10.9025ZM45.3992 55.8155V27.0739L48.6959 24.6092V53.3509L45.3992 55.8155ZM54.6135 53.0654V14.5803L56.6406 13.3562L58.1009 12.4725V50.9576L54.6135 53.0654Z" fill="black"/>
</svg>
