<svg width="64" height="64" viewBox="0 0 64 64" fill="none" xmlns="http://www.w3.org/2000/svg">
<path d="M29.5364 23.4331V34.3089V39.4919C29.5364 39.744 29.7391 39.9457 29.9924 39.9457C30.2457 39.9457 30.4484 39.744 30.4484 39.4919V35.4127L33.1677 38.1135C33.2578 38.2031 33.376 38.248 33.4886 38.248C33.6012 38.248 33.725 38.2031 33.8095 38.1135C33.9897 37.9342 33.9897 37.6484 33.8095 37.4691L30.4428 34.1296V29.6639L34.3275 31.8995L35.5604 36.4717C35.6167 36.6735 35.7969 36.8079 35.9995 36.8079C36.039 36.8079 36.0784 36.8079 36.1178 36.7911C36.3599 36.7239 36.5062 36.4773 36.4387 36.2364L35.4478 32.5439L38.9947 34.5835C39.0679 34.6227 39.1467 34.6451 39.2199 34.6451C39.3775 34.6451 39.5295 34.5611 39.614 34.4154C39.7378 34.1968 39.6646 33.9167 39.4451 33.7934L35.8926 31.7539L39.6083 30.7621C39.8504 30.6948 39.9968 30.4483 39.9292 30.2074C39.8673 29.9664 39.614 29.8207 39.3719 29.888L34.7722 31.1151L30.8876 28.885L34.7778 26.6493L39.3719 27.8764C39.4113 27.8876 39.4507 27.8933 39.4901 27.8933C39.6928 27.8933 39.8786 27.7588 39.9292 27.5571C39.9968 27.3161 39.8504 27.064 39.6083 27.0023L35.8982 26.0106L39.4451 23.971C39.6646 23.8477 39.7378 23.5676 39.614 23.3491C39.4901 23.1305 39.2086 23.0521 38.989 23.181L35.4365 25.2205L36.4331 21.5224C36.5006 21.2815 36.3542 21.0293 36.1121 20.9677C35.8701 20.9061 35.6167 21.0461 35.5548 21.2871L34.3218 25.8649L30.4372 28.095V23.6292L33.8039 20.2785C33.984 20.0992 33.984 19.8134 33.8039 19.6341C33.6237 19.4548 33.3366 19.4548 33.1564 19.6341L30.4372 22.3405V18.2558C30.4372 18.0036 30.2345 17.8019 29.9811 17.8019C29.7278 17.8019 29.5251 18.0036 29.5251 18.2558V23.4443L29.5364 23.4331Z" fill="black"/>
<path d="M27.7587 36.038C28.0164 36.038 28.2225 35.8371 28.2225 35.5861C28.2225 35.335 28.0164 35.1341 27.7587 35.1341C24.2146 35.1341 21.3346 32.3276 21.3346 28.8738C21.3346 25.4201 24.2146 22.6135 27.7587 22.6135C28.0164 22.6135 28.2225 22.4127 28.2225 22.1616C28.2225 21.9105 28.0164 21.7096 27.7587 21.7096C23.705 21.7096 20.407 24.9235 20.407 28.8738C20.407 32.8242 23.705 36.038 27.7587 36.038Z" fill="black"/>
<path d="M23.9448 37.181L23.471 38.5095C23.3946 38.7283 23.5016 38.9731 23.7207 39.0513C23.7665 39.0669 23.8175 39.0773 23.8633 39.0773C24.0315 39.0773 24.1894 38.9731 24.2506 38.8012L24.7244 37.4727C24.8008 37.2539 24.6938 37.0091 24.4748 36.9309C24.2607 36.8528 24.0213 36.9674 23.9448 37.1862V37.181Z" fill="black"/>
<path d="M23.3463 20.591C23.4339 20.7507 23.6154 20.8413 23.8094 20.8413C23.8845 20.8413 23.9533 20.8306 24.0222 20.804C24.2788 20.7028 24.3852 20.4473 24.2663 20.229L23.5466 18.9192C23.4276 18.7009 23.1272 18.6104 22.8707 18.7116C22.6141 18.8127 22.5077 19.0683 22.6266 19.2866L23.3463 20.5963V20.591Z" fill="black"/>
<path d="M17.6475 25.5504L18.973 26.026C19.0198 26.0413 19.0718 26.0516 19.1185 26.0516C19.2901 26.0516 19.4512 25.9493 19.5136 25.7805C19.5916 25.5657 19.4824 25.3254 19.2589 25.2487L17.9334 24.7731C17.7151 24.6964 17.4707 24.8089 17.3928 25.0237C17.3148 25.2384 17.424 25.4788 17.6475 25.5555V25.5504Z" fill="black"/>
<path d="M19.2347 32.1753L17.6659 32.8959C17.4044 33.0149 17.296 33.3157 17.4172 33.5726C17.5065 33.7605 17.6914 33.867 17.8891 33.867C17.9656 33.867 18.0358 33.8545 18.1059 33.8232L19.6747 33.1026C19.9361 32.9836 20.0446 32.6828 19.9234 32.426C19.8022 32.1691 19.4897 32.0563 19.2347 32.1816V32.1753Z" fill="black"/>
<path d="M63.4338 50.2713L63.8263 49.4641L55.9876 45.6327L57.3254 44.9582C57.4747 44.8808 57.5742 44.726 57.5742 44.5546L57.9943 14.3567C57.9943 14.1853 57.9003 14.0249 57.7455 13.9475L36.0758 3.08911C35.9486 3.02277 35.7994 3.02277 35.6722 3.08911L29.912 5.97511C29.912 5.97511 29.8899 5.98064 29.8789 5.98617L29.6964 6.09674C29.5638 6.17967 29.4753 6.32342 29.4753 6.47823L29.4311 15.3297C29.4311 15.5785 29.6301 15.7776 29.8789 15.7831C30.1276 15.7831 30.3266 15.5841 30.3266 15.3353L30.3709 7.00898L51.2059 17.6407L50.8024 39.1696L50.7526 39.1475L49.5254 38.5781L41.5651 34.9346C41.3384 34.8351 41.0731 34.9346 40.968 35.1558C40.863 35.3824 40.968 35.6478 41.1892 35.7529L49.1495 39.3963L49.8073 39.7059L50.2164 39.8939L29.2818 50.5422L8.39151 40.0819L16.772 36.3057C16.9986 36.2007 17.0981 35.9353 16.9986 35.7142C16.8991 35.4875 16.6282 35.3935 16.4071 35.4875L7.38541 39.5511C7.2251 39.623 7.12007 39.7833 7.12007 39.9602V40.1648C7.12007 40.1648 7.13112 40.2035 7.13665 40.2256C7.13665 40.2533 7.12007 40.2754 7.12007 40.303V47.7226C7.12007 47.894 7.21404 48.0488 7.36883 48.1262L9.73481 49.3093L0.475408 53.8152L0 54.053L0.403545 54.8546L10.752 49.818L15.5834 52.2396L5.48931 57.1546L5.8818 57.9618L16.5951 52.7482L21.3049 55.1034L11.2882 59.9798L11.6807 60.787L22.3165 55.6066L29.0939 59.0012C29.1547 59.0344 29.2266 59.0454 29.2929 59.0454C29.3592 59.0454 29.4311 59.0288 29.4974 58.9957L36.0205 55.7005L44.4617 59.825L44.8542 59.0178L37.0266 55.1919L42.6264 52.3667L51.1561 56.5354L51.5486 55.7282L43.627 51.8581L48.7625 49.2651L57.552 53.5609L57.9445 52.7537L49.7631 48.7565L54.976 46.1248L63.4283 50.2547L63.4338 50.2713ZM31.1171 6.38424L35.8767 4.00135L56.5515 14.3567L51.6647 16.8722L31.1171 6.38424ZM25.1082 53.2568L22.3165 54.6169L17.6067 52.2617L19.7018 51.2389L19.3093 50.4317L16.5951 51.753L11.7636 49.3314L14.2236 48.1372L13.8311 47.33L10.7575 48.8283L8.02113 47.4572V40.9056L28.8507 51.3328V57.8899L23.3337 55.1256L25.5062 54.0696L25.1137 53.2624L25.1082 53.2568ZM48.757 48.281L45.7719 46.8214L45.3794 47.6286L47.7509 48.7896L42.6154 51.3826L39.3704 49.7959L38.978 50.603L41.6093 51.8912L36.0094 54.7164L32.676 53.0855L32.2835 53.8926L35.0033 55.2251L29.7407 57.8789V51.3218L51.4491 40.2809C51.4491 40.2809 51.4602 40.2698 51.4657 40.2698C51.4712 40.2698 51.4768 40.2698 51.4878 40.2643C51.5376 40.2367 51.5707 40.1869 51.6039 40.1427C51.615 40.1316 51.6316 40.1206 51.6371 40.1095C51.6758 40.0432 51.6979 39.9713 51.6979 39.8939L52.1125 17.6573L57.0877 15.0975L56.6786 44.2892L54.9815 45.1462L51.6592 43.5207L51.2667 44.3279L53.9754 45.6548L48.7625 48.2865L48.757 48.281Z" fill="black"/>
</svg>
