<svg width="64" height="64" viewBox="0 0 64 64" fill="none" xmlns="http://www.w3.org/2000/svg">
<path d="M55.0592 10.9239C55.0592 10.9239 55.0314 10.8908 55.0203 10.8742C54.9981 10.8467 54.9815 10.8136 54.9537 10.7915C54.9426 10.7805 54.9204 10.7805 54.9093 10.7749C54.8926 10.7639 54.8871 10.7474 54.8704 10.7418L32.8874 0.0455104C32.7653 -0.0151701 32.6154 -0.0151701 32.4877 0.0455104L26.9142 2.77062C26.8754 2.78165 26.831 2.78717 26.7921 2.80924C26.7532 2.8313 26.7255 2.87543 26.6922 2.90853C26.6811 2.91956 26.67 2.9306 26.6589 2.94163C26.6478 2.95818 26.6311 2.97473 26.62 2.99679C26.5978 3.03541 26.5978 3.07954 26.5867 3.11815C26.5867 3.14022 26.5645 3.15125 26.5645 3.17332C26.5645 3.17884 26.5645 3.18435 26.5645 3.18987C26.5645 3.19538 26.5589 3.20642 26.5589 3.21193V10.4219L22.7341 12.9208C22.7341 12.9208 22.6953 12.965 22.6786 12.987C22.6453 13.0201 22.612 13.0477 22.5898 13.0863C22.5731 13.1139 22.5731 13.147 22.5676 13.1801C22.5565 13.2187 22.5398 13.2518 22.5398 13.2959V33.0999C22.4288 33.0668 22.3122 33.0613 22.2123 33.1164L8.94475 39.4879C8.94475 39.4879 8.93364 39.4989 8.92809 39.5044C8.92254 39.5044 8.91144 39.5044 8.90034 39.51C8.86148 39.532 8.83927 39.5706 8.80597 39.6093C8.78931 39.6313 8.76711 39.6423 8.75045 39.6644C8.71159 39.7306 8.68384 39.8078 8.68384 39.8906V52.6004C8.68384 52.7714 8.78376 52.9314 8.9392 53.0031L31.433 63.7822C31.494 63.8098 31.5606 63.8263 31.6273 63.8263C31.6939 63.8263 31.7605 63.8153 31.8215 63.7822L44.7838 57.5707C44.8448 57.5983 44.9059 57.6148 44.967 57.6148C45.028 57.6148 45.1002 57.6038 45.1613 57.5707L48.9916 55.7779C48.9916 55.7779 48.9972 55.7779 49.0027 55.7779C49.0694 55.7779 49.136 55.7613 49.2026 55.7337L54.715 53.0472C54.7816 53.0472 54.8482 53.0252 54.9149 52.9866C55.0536 52.9038 55.1425 52.7604 55.1425 52.6004V11.1501C55.1425 11.0673 55.1091 10.9901 55.0647 10.9184L55.0592 10.9239ZM39.4101 4.21592L34.7193 6.45559L32.3156 5.28611L36.9287 3.00783L39.4046 4.21592H39.4101ZM42.7798 5.8543L38.261 8.14913C38.261 8.14913 38.2499 8.16568 38.2388 8.17119L35.7519 6.9631L40.4427 4.72343L42.7798 5.85981V5.8543ZM46.81 7.81814L42.1858 10.0909L39.2381 8.65664L43.7901 6.34526L46.81 7.81263V7.81814ZM50.2962 9.51168L45.8885 11.8893L43.2128 10.5874L47.5594 8.44701C47.6427 8.4084 47.6982 8.3422 47.7426 8.26497L50.2962 9.50617V9.51168ZM53.6492 11.1445L49.0027 13.4063L46.8822 12.3747L51.2899 9.99713L53.6492 11.1445ZM27.4693 3.92907L30.7335 5.5178V12.485C29.7454 11.7348 28.6684 11.0397 27.4693 10.4164V3.92907ZM31.6328 5.95359L34.2752 7.23892L34.3196 15.7177C33.4814 14.835 32.5932 13.991 31.6384 13.1966V5.95911L31.6328 5.95359ZM35.1801 7.68023L38.0168 9.05934V19.9708L37.8225 19.7336C36.962 18.702 36.1071 17.687 35.23 16.7051L35.1856 7.67472L35.1801 7.68023ZM38.9161 9.50065L40.1984 10.124L41.7361 10.8742L41.6695 24.1357C40.6758 23.1096 39.771 22.0726 38.9161 21.0575V9.50065ZM42.6354 11.31L45.0447 12.4795C45.0447 12.4795 45.0391 12.4961 45.0391 12.5071V27.1532C44.1565 26.4691 43.3293 25.7575 42.5688 25.0294L42.641 11.31H42.6354ZM45.9384 12.9153L48.5475 14.1841V29.4425C47.6149 28.935 46.7434 28.3944 45.9384 27.8262V12.9153ZM24.344 14.5868C24.5438 14.7081 24.7492 14.824 24.9491 14.9509C25.5542 15.3481 26.1481 15.7728 26.7255 16.2472C29.218 18.2552 31.1554 20.5886 33.2038 23.06L33.3037 23.1814C33.659 23.6061 34.0143 24.0364 34.3807 24.4722C34.5028 24.6211 34.636 24.7701 34.7637 24.9135C35.0135 25.2059 35.2578 25.4927 35.5187 25.7851C35.6852 25.9727 35.8629 26.1602 36.0294 26.3423C36.2626 26.596 36.4902 26.8553 36.7344 27.1091C36.9176 27.3021 37.1119 27.4897 37.3007 27.6772C37.5449 27.9255 37.7892 28.1737 38.0445 28.422C38.2444 28.6095 38.4609 28.7971 38.6663 28.9846C38.9327 29.2274 39.1881 29.4646 39.4712 29.7018C39.6933 29.8893 39.932 30.0659 40.1651 30.2534C40.4538 30.4796 40.7313 30.7113 41.0311 30.9319C41.2809 31.114 41.5474 31.285 41.8083 31.4615C42.1192 31.6711 42.4245 31.8863 42.752 32.0904C43.0296 32.2614 43.3238 32.4158 43.6125 32.5813C43.9178 32.7523 44.2064 32.9344 44.5229 33.0999V43.6142L23.4447 33.5081V14.0627C23.75 14.2282 24.0498 14.3992 24.3495 14.5813L24.344 14.5868ZM32.0825 50.962L44.4451 45.0209V56.7432L32.0825 62.6679V50.962ZM45.4222 33.0778L46.0106 32.6972L48.5531 31.0423V55.0001L45.4222 56.4674V33.0833V33.0778ZM35.9128 2.51687L31.2997 4.79515L28.0522 3.21745L32.6931 0.950202L35.9184 2.52238L35.9128 2.51687ZM27.0363 11.1887C31.4441 13.489 34.203 16.8044 37.123 20.3073L37.3284 20.5555C40.0541 23.8378 43.1295 27.5449 48.1145 30.2534L44.9448 32.3221C39.8653 29.6852 36.7511 25.9341 33.9976 22.6132L33.8977 22.4918C31.8215 19.9874 29.8564 17.6208 27.2973 15.5522C26.1981 14.664 25.0768 13.9083 23.8777 13.2518L27.0419 11.1887H27.0363ZM43.8623 44.3037L31.6384 50.1787L10.1771 39.8906L22.4066 34.0156L43.8623 44.2982V44.3037ZM9.5887 40.6077L19.9141 45.5559L31.1832 50.9565V62.6679L9.59425 52.3191V40.6077H9.5887ZM49.4524 54.6194V14.1841L54.232 11.8562V52.286L49.4524 54.6194Z" fill="#231F20"/>
</svg>
